<svg xmlns="http://www.w3.org/2000/svg"  viewBox="0 0 24 24" width="24px" height="24px"><path d="M18,20H6c-1.105,0-2-0.895-2-2V6c0-1.105,0.895-2,2-2h12c1.105,0,2,0.895,2,2v12	C20,19.105,19.105,20,18,20z" opacity=".3"/><path d="M18,21H6c-1.654,0-3-1.346-3-3V6c0-1.654,1.346-3,3-3h12c1.654,0,3,1.346,3,3v12C21,19.654,19.654,21,18,21z M6,5	C5.448,5,5,5.449,5,6v12c0,0.551,0.448,1,1,1h12c0.552,0,1-0.449,1-1V6c0-0.551-0.448-1-1-1H6z"/><path d="M11,17c-1.654,0-3-1.346-3-3s1.346-3,3-3v2c-0.552,0-1,0.449-1,1s0.448,1,1,1s1-0.449,1-1h2C14,15.654,12.654,17,11,17z"/><rect width="2" height="7" x="12" y="7"/><path d="M16,11c-1.579,0-4-1.792-4-4h2c0,1.005,1.471,2,2,2V11z"/></svg>