<svg width="35" height="35" viewBox="0 0 35 35" fill="none" xmlns="http://www.w3.org/2000/svg">
<g clip-path="url(#clip0_388_142)">
<path d="M17.5 35C27.165 35 35 27.165 35 17.5C35 7.83502 27.165 0 17.5 0C7.83502 0 0 7.83502 0 17.5C0 27.165 7.83502 35 17.5 35Z" fill="#536779"/>
<path d="M27.4258 24.7188L20.207 17.5L27.3984 10.2812C27.5078 10.1719 27.5078 10.0078 27.3984 9.89844L25.0742 7.57422C24.9648 7.46484 24.8008 7.46484 24.6914 7.57422L17.5 14.793L10.3086 7.60156C10.1992 7.49219 10.0352 7.49219 9.92578 7.60156L7.60156 9.92578C7.49219 10.0352 7.49219 10.1992 7.60156 10.3086L14.7656 17.5L7.57422 24.6914C7.46484 24.8008 7.46484 24.9648 7.57422 25.0742L9.89844 27.3984C10.0078 27.5078 10.1992 27.5078 10.2812 27.3984L17.5 20.207L24.6914 27.3984C24.8008 27.5078 24.9922 27.5078 25.1016 27.4258L27.4258 25.1016C27.5352 24.9922 27.5352 24.8281 27.4258 24.7188Z" fill="white"/>
</g>
<defs>
<clipPath id="clip0_388_142">
<rect width="35" height="35" fill="white"/>
</clipPath>
</defs>
</svg>
