<?xml version="1.0" standalone="no"?>
<!DOCTYPE svg PUBLIC "-//W3C//DTD SVG 20010904//EN"
 "http://www.w3.org/TR/2001/REC-SVG-20010904/DTD/svg10.dtd">
<svg version="1.0" xmlns="http://www.w3.org/2000/svg"
 width="478.000000pt" height="497.000000pt" viewBox="0 0 478.000000 497.000000"
 preserveAspectRatio="xMidYMid meet">

<g transform="translate(0.000000,497.000000) scale(0.100000,-0.100000)"
fill="#000000" stroke="none">
<path d="M2360 4098 c-50 -82 -51 -170 -2 -245 l31 -47 28 59 c36 78 35 141
-1 213 -14 28 -29 52 -31 52 -3 0 -14 -15 -25 -32z"/>
<path d="M2210 3863 c1 -63 76 -147 155 -173 31 -10 38 -8 92 27 55 36 80 69
98 131 5 18 2 22 -15 22 -53 0 -150 -79 -150 -123 0 -10 -4 -17 -10 -17 -5 0
-10 14 -10 30 0 48 -47 87 -137 114 -18 6 -23 3 -23 -11z"/>
<path d="M1846 3724 c-30 -30 -14 -84 24 -84 43 0 66 70 31 90 -27 14 -37 13
-55 -6z"/>
<path d="M2872 3728 c-17 -17 -15 -54 4 -73 41 -41 98 22 59 65 -20 23 -45 26
-63 8z"/>
<path d="M2230 3678 c0 -51 24 -90 73 -123 28 -19 55 -35 59 -35 11 0 21 66
13 90 -14 44 -145 105 -145 68z"/>
<path d="M2473 3675 c-58 -25 -83 -58 -83 -110 0 -25 4 -45 9 -45 23 0 108 69
123 100 33 68 18 85 -49 55z"/>
<path d="M1976 3654 c-3 -9 -6 -25 -6 -35 0 -17 6 -20 32 -17 38 3 48 27 23
52 -21 20 -41 21 -49 0z"/>
<path d="M2750 3655 c-18 -21 -8 -50 19 -53 31 -5 45 11 37 42 -7 29 -36 35
-56 11z"/>
<path d="M1530 3566 c0 -56 31 -98 68 -94 20 2 28 10 33 35 7 37 5 41 -42 76
-50 37 -59 35 -59 -17z"/>
<path d="M3194 3591 c-43 -27 -56 -46 -52 -83 2 -27 8 -34 29 -36 36 -4 69 38
69 89 0 47 -9 53 -46 30z"/>
<path d="M1944 3562 c-17 -11 -22 -35 -13 -60 7 -19 15 -23 41 -20 31 3 33 6
36 46 3 40 2 42 -25 42 -15 0 -33 -4 -39 -8z"/>
<path d="M2773 3563 c-16 -6 -17 -37 -3 -64 15 -28 58 -25 71 5 21 45 -19 79
-68 59z"/>
<path d="M2056 3522 c-3 -6 -1 -14 5 -17 14 -9 20 -2 10 14 -6 8 -11 9 -15 3z"/>
<path d="M2234 3499 c10 -51 51 -106 96 -129 49 -25 57 -15 44 57 -8 42 -13
49 -54 69 -25 12 -56 26 -69 29 -23 7 -24 6 -17 -26z"/>
<path d="M2468 3510 c-52 -28 -78 -65 -78 -111 0 -45 10 -48 56 -20 41 25 82
79 90 119 5 27 4 32 -12 32 -11 -1 -35 -10 -56 -20z"/>
<path d="M2695 3521 c-6 -11 9 -23 19 -14 9 9 7 23 -3 23 -6 0 -12 -4 -16 -9z"/>
<path d="M1670 3478 l-20 -33 33 -34 c28 -31 14 -26 -21 7 -15 14 -70 16 -91
3 -24 -15 24 -77 64 -81 57 -6 73 0 84 31 22 63 10 139 -21 139 -5 0 -17 -15
-28 -32z"/>
<path d="M3057 3492 c-18 -20 -22 -78 -8 -101 7 -11 14 -10 37 4 l29 17 -24
-21 c-34 -31 -21 -51 32 -51 33 0 49 6 66 24 36 38 25 61 -31 60 -33 0 -45 3
-41 12 5 13 -26 74 -38 74 -3 0 -13 -8 -22 -18z"/>
<path d="M2103 3450 c-42 -17 -38 -81 7 -95 26 -8 70 19 70 43 0 18 -35 63
-48 61 -4 0 -17 -4 -29 -9z"/>
<path d="M2610 3429 c-15 -28 -5 -66 20 -74 47 -15 78 22 60 71 -12 32 -64 34
-80 3z"/>
<path d="M1771 3371 c-6 -11 -11 -30 -11 -42 0 -16 -3 -20 -11 -12 -7 7 -21 5
-47 -8 -20 -11 -42 -19 -49 -19 -22 0 -14 -35 13 -61 19 -18 38 -24 81 -26 30
-1 58 -4 61 -8 11 -11 -15 -25 -57 -33 -48 -8 -51 -15 -24 -55 23 -35 43 -41
90 -28 32 9 40 8 51 -6 19 -26 15 -31 -31 -38 -67 -10 -75 -19 -55 -52 15 -26
22 -28 70 -26 103 4 93 -6 95 99 2 52 -1 94 -5 94 -16 0 -32 -25 -32 -50 0
-40 -11 -43 -30 -7 -28 52 -33 77 -17 77 23 0 49 36 50 72 2 27 -2 34 -20 36
-16 2 -26 -5 -37 -27 -9 -16 -16 -37 -16 -46 0 -30 -19 -14 -45 37 -16 32 -20
46 -10 38 22 -18 29 -6 30 53 0 40 -4 52 -17 55 -9 2 -21 -6 -27 -17z"/>
<path d="M2954 3364 c-4 -14 -1 -44 6 -67 l12 -42 24 30 c13 17 24 38 24 48 0
54 -54 79 -66 31z"/>
<path d="M2471 3297 c-50 -66 -59 -102 -36 -151 l18 -37 24 23 c33 31 52 68
62 125 9 47 0 93 -18 93 -5 0 -27 -24 -50 -53z"/>
<path d="M2224 3325 c-13 -32 7 -125 33 -155 38 -46 63 -57 80 -34 17 24 17
78 -1 113 -16 30 -80 91 -97 91 -5 0 -12 -7 -15 -15z"/>
<path d="M3002 3274 c-15 -25 -37 -58 -50 -72 l-22 -27 5 25 c6 29 -27 90 -49
90 -23 0 -39 -28 -31 -57 8 -34 44 -75 58 -66 7 4 7 -3 3 -18 -4 -13 -10 -34
-13 -46 -9 -37 -30 -35 -37 2 -14 73 -51 49 -40 -25 3 -25 5 -64 4 -87 l-1
-43 66 0 c57 0 69 3 90 25 46 45 28 62 -62 57 -25 -1 -28 9 -12 39 7 15 16 18
32 13 43 -14 81 -6 105 21 34 40 28 52 -29 60 -39 6 -49 11 -47 24 2 12 18 17
64 21 50 4 66 10 83 30 11 14 20 30 21 36 0 10 -82 44 -105 44 -3 0 -18 -21
-33 -46z"/>
<path d="M2130 3283 c0 -30 38 -83 60 -83 25 0 25 4 -1 57 -22 45 -59 61 -59
26z"/>
<path d="M2603 3292 c-10 -6 -43 -82 -43 -98 0 -2 13 2 30 7 22 8 32 20 40 47
5 21 10 40 10 45 0 9 -22 9 -37 -1z"/>
<path d="M2030 3176 c0 -3 9 -20 19 -37 36 -60 99 -115 180 -158 44 -24 88
-52 97 -62 10 -12 18 -48 24 -111 8 -95 16 -128 30 -128 21 0 33 38 39 122 4
51 14 103 22 116 7 12 45 39 84 59 108 56 154 91 186 141 16 25 29 50 29 55 0
12 -97 2 -154 -15 -52 -16 -126 -92 -168 -173 -18 -36 -36 -65 -39 -65 -3 0
-11 17 -17 38 -26 85 -104 166 -189 196 -44 15 -143 31 -143 22z"/>
<path d="M2375 3129 c-8 -55 -4 -104 10 -104 13 0 18 94 7 125 -9 23 -10 21
-17 -21z"/>
<path d="M2006 3013 c-19 -56 -45 -83 -84 -84 -15 0 -41 -6 -59 -12 -26 -10
-30 -15 -20 -27 20 -26 60 -50 85 -50 12 0 26 -8 29 -17 7 -20 91 -119 163
-194 46 -48 99 -69 136 -55 13 5 1 16 -44 44 -82 49 -155 114 -203 178 -39 51
-59 104 -39 104 5 0 10 -7 10 -16 0 -23 30 -13 53 18 25 33 27 105 5 137 -16
22 -16 22 -32 -26z"/>
<path d="M2731 3031 c-6 -11 -11 -40 -11 -64 0 -50 29 -97 61 -97 30 0 23 -27
-25 -88 -56 -73 -73 -88 -174 -155 -80 -53 -82 -56 -54 -62 16 -3 40 -1 54 4
26 10 202 202 225 246 8 14 25 25 46 29 37 7 80 41 74 59 -2 7 -19 13 -38 15
-53 4 -79 22 -105 73 -29 58 -40 66 -53 40z"/>
<path d="M1392 3028 c-16 -16 -15 -53 2 -67 8 -7 27 -11 43 -9 34 4 54 47 33
72 -15 19 -61 21 -78 4z"/>
<path d="M3302 3028 c-7 -7 -12 -21 -12 -33 0 -45 53 -61 85 -25 15 17 16 24
7 45 -13 27 -58 35 -80 13z"/>
<path d="M1540 2968 c0 -63 18 -116 45 -134 36 -24 58 -15 67 29 9 46 -6 82
-52 121 -46 38 -60 34 -60 -16z"/>
<path d="M3179 2987 c-46 -30 -68 -76 -60 -124 6 -34 10 -38 36 -36 49 4 69
34 73 113 3 41 0 70 -5 70 -6 0 -25 -10 -44 -23z"/>
<path d="M2120 2924 c10 -45 31 -68 84 -94 82 -39 113 -14 61 49 -23 27 -119
81 -143 81 -6 0 -7 -14 -2 -36z"/>
<path d="M2561 2920 c-73 -41 -81 -48 -81 -81 0 -25 4 -29 26 -29 51 0 120 59
138 118 10 31 -16 29 -83 -8z"/>
<path d="M1702 2883 c-21 -57 -22 -101 -1 -128 24 -30 45 -32 59 -6 16 30 12
83 -8 121 -24 44 -37 47 -50 13z"/>
<path d="M3020 2864 c-20 -40 -21 -51 -11 -82 19 -64 27 -70 53 -44 17 17 23
33 22 66 -1 46 -20 106 -34 106 -5 0 -18 -21 -30 -46z"/>
<path d="M1445 2791 l-29 -6 39 -39 c56 -56 133 -88 210 -88 76 0 99 -11 71
-31 -18 -13 -17 -15 19 -21 l39 -8 -24 -18 c-28 -21 -28 -21 63 -38 77 -15
136 -58 218 -160 36 -45 101 -118 145 -162 86 -87 149 -180 166 -247 13 -55
33 -55 47 1 14 59 95 177 171 251 33 33 93 101 132 150 84 107 140 150 217
166 87 18 89 18 69 33 -22 16 -13 26 24 26 28 0 38 15 16 23 -30 11 14 29 85
37 85 10 139 34 199 88 l41 37 -29 6 c-16 4 -61 7 -99 8 -79 1 -89 -4 -170
-79 -27 -25 -76 -63 -108 -84 -65 -41 -217 -164 -217 -175 0 -4 -61 -72 -137
-151 -75 -80 -152 -170 -172 -200 -20 -30 -39 -59 -43 -64 -3 -5 -18 14 -32
42 -14 28 -72 99 -129 159 -56 59 -116 124 -132 143 -85 99 -148 157 -230 212
-49 34 -121 86 -159 117 -39 31 -79 61 -90 68 -22 13 -120 15 -171 4z"/>
<path d="M1836 2789 c-12 -35 -22 -129 -16 -140 11 -17 47 -1 54 24 12 46 6
94 -14 112 -16 14 -20 15 -24 4z"/>
<path d="M2059 2782 c19 -36 109 -105 184 -142 39 -19 79 -46 89 -60 10 -14
20 -54 24 -95 7 -65 20 -95 42 -95 5 0 12 37 15 81 7 104 19 121 132 181 88
47 165 110 165 135 0 23 -108 16 -165 -11 -57 -26 -128 -100 -147 -152 -7 -19
-15 -34 -18 -34 -3 0 -12 17 -19 38 -22 61 -71 120 -117 143 -27 12 -73 23
-120 26 -75 6 -76 6 -65 -15z"/>
<path d="M2900 2774 c-14 -37 -12 -97 4 -119 12 -16 16 -17 30 -6 19 16 20 45
5 107 -13 50 -25 56 -39 18z"/>
<path d="M2797 2695 c-17 -36 -22 -115 -8 -149 6 -16 11 -14 39 18 18 20 32
42 32 50 0 23 -31 116 -39 116 -4 0 -15 -16 -24 -35z"/>
<path d="M1937 2712 c-5 -7 -10 -72 -8 -104 1 -17 38 -58 53 -58 15 0 9 124
-8 148 -15 23 -29 28 -37 14z"/>
<path d="M2080 2538 c0 -20 55 -110 80 -133 12 -11 54 -36 93 -55 83 -41 93
-56 102 -155 7 -80 24 -133 35 -114 5 6 11 45 15 85 4 44 15 90 28 115 19 36
32 46 92 71 39 16 81 39 94 51 33 31 81 107 81 130 0 17 -5 19 -42 13 -109
-18 -203 -99 -254 -222 l-15 -36 -24 49 c-44 86 -112 162 -168 189 -56 26
-117 32 -117 12z"/>
<path d="M1794 2414 c12 -30 51 -72 87 -93 51 -29 159 -28 159 1 0 22 -44 70
-80 88 -52 26 -176 29 -166 4z"/>
<path d="M2812 2409 c-44 -22 -82 -65 -82 -93 0 -24 109 -22 159 4 42 21 91
73 91 96 0 23 -116 19 -168 -7z"/>
<path d="M1979 2221 c-36 -12 -69 -30 -69 -39 0 -14 70 -52 109 -58 42 -7 93
6 128 34 l23 17 -35 24 c-38 26 -112 36 -156 22z"/>
<path d="M2653 2209 c-24 -12 -43 -27 -43 -34 0 -18 80 -55 119 -55 38 0 133
48 128 64 -6 19 -68 42 -116 44 -29 1 -62 -6 -88 -19z"/>
<path d="M1909 1806 c-129 -46 -209 -166 -196 -295 15 -154 134 -263 288 -263
176 0 314 148 296 318 -10 95 -73 184 -160 227 -45 22 -69 27 -124 27 -37 -1
-84 -7 -104 -14z m192 -83 c70 -36 119 -112 119 -185 0 -59 -35 -134 -80 -171
-103 -87 -280 -37 -335 95 -45 108 16 232 134 274 56 20 103 16 162 -13z"/>
<path d="M2774 1810 c-17 -6 -37 -17 -44 -25 -7 -8 -17 -15 -22 -15 -5 0 -20
-12 -34 -27 -107 -120 -113 -283 -13 -396 95 -109 243 -129 376 -51 l45 26
-27 28 -28 29 -48 -25 c-52 -26 -127 -32 -176 -13 -40 15 -92 67 -114 114 -68
146 59 314 220 290 25 -4 63 -16 84 -28 l38 -21 24 25 25 24 -52 35 c-47 33
-56 35 -137 37 -47 1 -100 -2 -117 -7z"/>
<path d="M820 1530 l0 -280 40 0 40 0 2 207 3 206 34 -84 c19 -46 59 -139 89
-206 50 -113 56 -123 81 -123 30 0 22 -16 138 263 36 86 69 157 73 157 3 0 5
-94 2 -210 l-5 -210 42 0 41 0 0 280 0 280 -53 0 -53 0 -60 -137 c-34 -76 -74
-173 -90 -215 -16 -43 -31 -78 -35 -78 -3 0 -46 97 -95 215 l-89 215 -52 0
-53 0 0 -280z"/>
<path d="M3514 1753 c-70 -152 -204 -476 -204 -493 0 -6 17 -10 38 -10 38 0
38 0 68 73 l29 72 131 3 131 3 30 -73 29 -73 43 -3 c33 -3 42 0 38 10 -3 7
-52 123 -110 258 -57 135 -108 255 -111 268 -6 18 -15 22 -46 22 -38 0 -40 -2
-66 -57z m120 -193 l35 -85 -91 -3 c-50 -1 -93 -1 -95 2 -4 4 70 197 85 221 3
5 11 -4 18 -20 7 -17 29 -68 48 -115z"/>
</g>
</svg>
